<svg width="28" height="28" viewBox="0 0 28 28" fill="none" xmlns="http://www.w3.org/2000/svg">
<path d="M21.7782 15.0926L9.31789 27.5527C9.0297 27.8411 8.64499 28 8.23478 28C7.82457 28 7.43986 27.8411 7.15167 27.5527L6.23405 26.6353C5.63695 26.0375 5.63695 25.0659 6.23405 24.4691L16.6973 14.0058L6.22244 3.53093C5.93424 3.24251 5.77512 2.85803 5.77512 2.44805C5.77512 2.03761 5.93424 1.65312 6.22244 1.36448L7.14006 0.447313C7.42848 0.158894 7.81296 0 8.22317 0C8.63338 0 9.01809 0.158894 9.30628 0.447313L21.7782 12.9188C22.0671 13.2082 22.2258 13.5945 22.2249 14.0051C22.2258 14.4174 22.0671 14.8035 21.7782 15.0926Z" fill="white"/>
</svg>
