<svg width="47" height="39" viewBox="0 0 47 39" fill="none" xmlns="http://www.w3.org/2000/svg">
<g clip-path="url(#clip0)" filter="url(#filter0_d)">
<path d="M4.72897 16.5112C4.3264 16.5112 4 16.8376 4 17.2402V21.7598C4 22.1624 4.3264 22.4888 4.72897 22.4888C5.13155 22.4888 5.45794 22.1624 5.45794 21.7598V17.2402C5.45794 16.8376 5.13155 16.5112 4.72897 16.5112Z" fill="#9F72FF" fill-opacity="0.74"/>
<path d="M7.6157 12.8299C7.21313 12.8299 6.88673 13.1563 6.88673 13.5589V25.4411C6.88673 25.8437 7.21313 26.1701 7.6157 26.1701C8.01828 26.1701 8.34467 25.8437 8.34467 25.4411V13.5589C8.34467 13.1563 8.01828 12.8299 7.6157 12.8299Z" fill="white"/>
<path d="M10.5024 14.1056C10.0999 14.1056 9.77346 14.432 9.77346 14.8346V24.1654C9.77346 24.568 10.0999 24.8944 10.5024 24.8944C10.905 24.8944 11.2314 24.568 11.2314 24.1654V14.8346C11.2314 14.432 10.905 14.1056 10.5024 14.1056Z" fill="white"/>
<path d="M13.3892 16.5112C12.9866 16.5112 12.6602 16.8376 12.6602 17.2402V21.7598C12.6602 22.1624 12.9866 22.4888 13.3892 22.4888C13.7917 22.4888 14.1181 22.1624 14.1181 21.7598V17.2402C14.1181 16.8376 13.7917 16.5112 13.3892 16.5112Z" fill="white"/>
<path d="M16.2832 10.1619C15.8806 10.1619 15.5542 10.4883 15.5542 10.8908V28.1092C15.5542 28.5117 15.8806 28.8381 16.2832 28.8381C16.6858 28.8381 17.0122 28.5117 17.0122 28.1092V10.8908C17.0122 10.4883 16.6858 10.1619 16.2832 10.1619Z" fill="#9F72FF" fill-opacity="0.74"/>
<path d="M19.1699 13.7192C18.7673 13.7192 18.4409 14.0456 18.4409 14.4482V24.5518C18.4409 24.9543 18.7673 25.2807 19.1699 25.2807C19.5725 25.2807 19.8989 24.9543 19.8989 24.5518V14.4482C19.8989 14.0456 19.5725 13.7192 19.1699 13.7192Z" fill="white"/>
<path d="M22.0421 14.9366C21.6395 14.9366 21.3131 15.263 21.3131 15.6656V23.3344C21.3131 23.737 21.6395 24.0634 22.0421 24.0634C22.4446 24.0634 22.771 23.737 22.771 23.3344V15.6656C22.771 15.263 22.4446 14.9366 22.0421 14.9366Z" fill="white"/>
<path d="M24.9579 16.5112C24.5554 16.5112 24.229 16.8376 24.229 17.2402V21.7598C24.229 22.1624 24.5554 22.4888 24.9579 22.4888C25.3605 22.4888 25.6869 22.1624 25.6869 21.7598V17.2402C25.6869 16.8376 25.3605 16.5112 24.9579 16.5112Z" fill="#9F72FF" fill-opacity="0.74"/>
<path d="M27.8301 14.9366C27.4275 14.9366 27.1011 15.263 27.1011 15.6656V23.3344C27.1011 23.737 27.4275 24.0634 27.8301 24.0634C28.2327 24.0634 28.5591 23.737 28.5591 23.3344V15.6656C28.5591 15.263 28.2327 14.9366 27.8301 14.9366Z" fill="white"/>
<path d="M30.7168 13.7192C30.3142 13.7192 29.9879 14.0456 29.9879 14.4482V24.5518C29.9879 24.9543 30.3142 25.2807 30.7168 25.2807C31.1194 25.2807 31.4458 24.9543 31.4458 24.5518V14.4482C31.4458 14.0456 31.1194 13.7192 30.7168 13.7192Z" fill="white"/>
<path d="M33.6108 10.1619C33.2083 10.1619 32.8819 10.4883 32.8819 10.8908V28.1092C32.8819 28.5117 33.2083 28.8381 33.6108 28.8381C34.0134 28.8381 34.3398 28.5117 34.3398 28.1092V10.8908C34.3398 10.4883 34.0134 10.1619 33.6108 10.1619Z" fill="#9F72FF" fill-opacity="0.74"/>
<path d="M36.4976 14.1056C36.095 14.1056 35.7686 14.432 35.7686 14.8346V24.1654C35.7686 24.568 36.095 24.8944 36.4976 24.8944C36.9001 24.8944 37.2265 24.568 37.2265 24.1654V14.8346C37.2265 14.432 36.9001 14.1056 36.4976 14.1056Z" fill="white"/>
<path d="M39.3843 16.5112C38.9817 16.5112 38.6553 16.8376 38.6553 17.2402V21.7598C38.6553 22.1624 38.9817 22.4888 39.3843 22.4888C39.7869 22.4888 40.1133 22.1624 40.1133 21.7598V17.2402C40.1133 16.8376 39.7869 16.5112 39.3843 16.5112Z" fill="white"/>
<path d="M42.271 16.5112C41.8685 16.5112 41.5421 16.8376 41.5421 17.2402V21.7598C41.5421 22.1624 41.8685 22.4888 42.271 22.4888C42.6736 22.4888 43 22.1624 43 21.7598V17.2402C43 16.8376 42.6736 16.5112 42.271 16.5112Z" fill="#9F72FF" fill-opacity="0.74"/>
</g>
<defs>
<filter id="filter0_d" x="0" y="0" width="47" height="47" filterUnits="userSpaceOnUse" color-interpolation-filters="sRGB">
<feFlood flood-opacity="0" result="BackgroundImageFix"/>
<feColorMatrix in="SourceAlpha" type="matrix" values="0 0 0 0 0 0 0 0 0 0 0 0 0 0 0 0 0 0 127 0" result="hardAlpha"/>
<feOffset dy="4"/>
<feGaussianBlur stdDeviation="2"/>
<feComposite in2="hardAlpha" operator="out"/>
<feColorMatrix type="matrix" values="0 0 0 0 0 0 0 0 0 0 0 0 0 0 0 0 0 0 0.25 0"/>
<feBlend mode="normal" in2="BackgroundImageFix" result="effect1_dropShadow"/>
<feBlend mode="normal" in="SourceGraphic" in2="effect1_dropShadow" result="shape"/>
</filter>
<clipPath id="clip0">
<rect width="39" height="39" fill="white" transform="translate(4)"/>
</clipPath>
</defs>
</svg>
